<?xml version="1.0" encoding="UTF-8"?>
<svg id="Layer_2" data-name="Layer 2" xmlns="http://www.w3.org/2000/svg" viewBox="0 0 181.19 42.44">
  <defs>
    <style>
      .cls-1 {
        fill: #231f20;
      }

      .cls-2 {
        fill: #26416b;
      }

      .cls-3 {
        fill: #4ba1d2;
      }

      .cls-4 {
        fill: #ef907b;
      }
    </style>
  </defs>
  <g id="Layer_1-2" data-name="Layer 1">
    <g>
      <g id="uuid-5c511e44-e476-4a5c-bf76-f271520a05ca" data-name="Layer 1-2">
        <g>
          <path class="cls-1" d="M1.12,22.29c0,.1-.08.16-.18.16H.18c-.11,0-.18-.06-.18-.16V.45c0-.1.08-.16.18-.19,1.87-.16,3.63-.26,4.83-.26,7.02,0,8.89,2.62,8.89,6.07,0,4.24-3.37,6.48-9.27,6.48-.71,0-1.99-.03-3.53-.23v9.96h.01ZM12.72,6.08C12.72,2.18,9.98.94,4.5.94c-1.23,0-2.55.1-3.37.19v10.31c1.09.19,2.37.26,3.42.26,5.21,0,8.18-1.6,8.18-5.61h0Z"/>
          <path class="cls-1" d="M23.14.24c.03-.1.15-.16.26-.16h.34c.11,0,.23.06.26.16l9.12,22.05c.03.1,0,.16-.11.16h-.75c-.11,0-.23-.06-.26-.16l-3.22-7.88h-10.39l-3.19,7.88c-.03.1-.15.16-.3.16h-.75c-.08,0-.15-.06-.11-.16L23.14.24ZM21.79,6.05l-3.04,7.47h9.64l-3.04-7.47-1.76-4.79h-.03l-1.76,4.79Z"/>
          <path class="cls-1" d="M52.29,22.32c.03.06-.03.13-.11.13h-.9c-.11,0-.23-.06-.26-.13l-6.3-10.37h-5.85v10.34c0,.1-.08.16-.18.16h-.75c-.11,0-.18-.06-.18-.16V.45c0-.1.08-.16.18-.19,1.91-.16,4.31-.26,5.47-.26,5.88,0,8.25,2.42,8.25,5.77s-2.29,5.33-5.82,6.03l6.46,10.5h-.01ZM44,11.05c3.83,0,6.46-1.95,6.46-5.27,0-3.63-2.89-4.86-7.08-4.86-1.61,0-3.68.13-4.5.26v9.86h5.14-.01Z"/>
          <path class="cls-1" d="M64.26.24c.03-.1.15-.16.26-.16h.34c.11,0,.23.06.26.16l9.12,22.05c.03.1,0,.16-.11.16h-.75c-.11,0-.23-.06-.26-.16l-3.22-7.88h-10.39l-3.19,7.88c-.03.1-.15.16-.3.16h-.75c-.08,0-.15-.06-.11-.16L64.26.24ZM62.91,6.05l-3.04,7.47h9.64l-3.04-7.47-1.76-4.79h-.03l-1.76,4.79Z"/>
          <path class="cls-1" d="M79.97,21.59h11.52c.11,0,.23.06.18.16l-.08.54c-.03.1-.11.16-.23.16h-12.34c-.11,0-.18-.06-.18-.16V.27c0-.1.08-.16.18-.16h.75c.11,0,.18.06.18.16v21.32h.01Z"/>
          <path class="cls-1" d="M97.2,21.59h11.52c.11,0,.23.06.18.16l-.08.54c-.03.1-.11.16-.23.16h-12.34c-.11,0-.18-.06-.18-.16V.27c0-.1.08-.16.18-.16h.75c.11,0,.18.06.18.16v21.32h.01Z"/>
          <path class="cls-1" d="M120.38.24c.03-.1.15-.16.26-.16h.34c.11,0,.23.06.26.16l9.12,22.05c.03.1,0,.16-.11.16h-.75c-.11,0-.23-.06-.26-.16l-3.22-7.88h-10.39l-3.19,7.88c-.03.1-.15.16-.3.16h-.75c-.08,0-.15-.06-.11-.16L120.38.24ZM119.02,6.05l-3.04,7.47h9.64l-3.04-7.47-1.76-4.79h-.03l-1.76,4.79h0Z"/>
          <path class="cls-1" d="M145.1,16.58l-3.34-4.76-3.37,4.76-3.98,5.74c-.08.06-.18.13-.3.13h-.94c-.08,0-.15-.06-.08-.13l8.1-11.27L133.47.24c-.08-.06,0-.13.08-.13h.94c.11,0,.23.06.3.13l4.2,6.03,2.89,4.02,2.86-4.02,4.35-6.03c.08-.06.18-.13.34-.13h.9c.08,0,.15.06.08.13l-8.02,10.73,8.14,11.37c.08.06,0,.13-.08.13h-.9c-.11,0-.26-.06-.34-.13l-4.09-5.74h-.01Z"/>
          <path class="cls-1" d="M159.06,15.68l-2.63,6.77h-3.37L161.64.94h3.94l8.63,21.51h-3.49l-2.7-6.77h-8.97.01ZM167.34,13.51l-2.48-6.2c-.56-1.41-.94-2.68-1.31-3.93h-.08c-.38,1.28-.79,2.58-1.28,3.89l-2.48,6.22h7.61Z"/>
          <path class="cls-1" d="M181.19.94v21.51h-3.27V.94h3.27Z"/>
        </g>
      </g>
      <g>
        <circle class="cls-3" cx="81.63" cy="38.71" r="3.73"/>
        <circle class="cls-2" cx="93.56" cy="38.71" r="3.73"/>
        <circle class="cls-4" cx="105.19" cy="38.69" r="3.73"/>
      </g>
    </g>
  </g>
</svg>